<mxfile host="app.diagrams.net" modified="2020-11-16T09:09:20.025Z" agent="5.0 (Windows)" etag="Tq5fctk5RnmIwzy2r_zk" version="13.9.9" type="github">
  <diagram id="EenprXxi53aLE07QUELb" name="Page-1">
    <mxGraphModel dx="793" dy="679" grid="1" gridSize="10" guides="1" tooltips="1" connect="1" arrows="1" fold="1" page="1" pageScale="1" pageWidth="827" pageHeight="1169" math="0" shadow="0">
      <root>
        <mxCell id="0" />
        <mxCell id="1" parent="0" />
        <mxCell id="Na_bWZpocqXKviQB2uQU-4" value="" style="edgeStyle=orthogonalEdgeStyle;rounded=0;orthogonalLoop=1;jettySize=auto;html=1;" edge="1" parent="1" source="Na_bWZpocqXKviQB2uQU-1" target="Na_bWZpocqXKviQB2uQU-3">
          <mxGeometry relative="1" as="geometry" />
        </mxCell>
        <mxCell id="Na_bWZpocqXKviQB2uQU-1" value="&lt;font style=&quot;font-size: 18px&quot;&gt;运动演示&lt;br&gt;&lt;/font&gt;" style="rounded=1;whiteSpace=wrap;html=1;fillColor=#ffe6cc;strokeColor=#d79b00;" vertex="1" parent="1">
          <mxGeometry x="240" y="190" width="120" height="60" as="geometry" />
        </mxCell>
        <mxCell id="Na_bWZpocqXKviQB2uQU-6" value="" style="edgeStyle=orthogonalEdgeStyle;rounded=0;orthogonalLoop=1;jettySize=auto;html=1;" edge="1" parent="1" source="Na_bWZpocqXKviQB2uQU-3" target="Na_bWZpocqXKviQB2uQU-5">
          <mxGeometry relative="1" as="geometry" />
        </mxCell>
        <mxCell id="Na_bWZpocqXKviQB2uQU-3" value="&lt;font style=&quot;font-size: 18px&quot;&gt;策略学习&lt;/font&gt;" style="rounded=1;whiteSpace=wrap;html=1;fillColor=#ffe6cc;strokeColor=#d79b00;" vertex="1" parent="1">
          <mxGeometry x="440" y="190" width="120" height="60" as="geometry" />
        </mxCell>
        <mxCell id="Na_bWZpocqXKviQB2uQU-9" style="edgeStyle=orthogonalEdgeStyle;rounded=0;orthogonalLoop=1;jettySize=auto;html=1;exitX=0.5;exitY=1;exitDx=0;exitDy=0;entryX=1;entryY=0.5;entryDx=0;entryDy=0;" edge="1" parent="1" source="Na_bWZpocqXKviQB2uQU-5" target="Na_bWZpocqXKviQB2uQU-7">
          <mxGeometry relative="1" as="geometry" />
        </mxCell>
        <mxCell id="Na_bWZpocqXKviQB2uQU-5" value="&lt;font style=&quot;font-size: 18px&quot;&gt;策略生成&lt;/font&gt;" style="rounded=1;whiteSpace=wrap;html=1;fillColor=#ffe6cc;strokeColor=#d79b00;" vertex="1" parent="1">
          <mxGeometry x="440" y="330" width="120" height="60" as="geometry" />
        </mxCell>
        <mxCell id="Na_bWZpocqXKviQB2uQU-8" style="edgeStyle=orthogonalEdgeStyle;rounded=0;orthogonalLoop=1;jettySize=auto;html=1;entryX=0;entryY=0.5;entryDx=0;entryDy=0;" edge="1" parent="1" source="Na_bWZpocqXKviQB2uQU-7" target="Na_bWZpocqXKviQB2uQU-5">
          <mxGeometry relative="1" as="geometry">
            <Array as="points">
              <mxPoint x="320" y="360" />
            </Array>
          </mxGeometry>
        </mxCell>
        <mxCell id="Na_bWZpocqXKviQB2uQU-7" value="&lt;font style=&quot;font-size: 18px&quot;&gt;环境信息&lt;/font&gt;" style="rounded=1;whiteSpace=wrap;html=1;fillColor=#ffe6cc;strokeColor=#d79b00;" vertex="1" parent="1">
          <mxGeometry x="260" y="400" width="120" height="60" as="geometry" />
        </mxCell>
        <mxCell id="Na_bWZpocqXKviQB2uQU-10" value="&lt;b&gt;&lt;font style=&quot;font-size: 14px&quot;&gt;D&lt;/font&gt;&lt;/b&gt;" style="text;html=1;align=center;verticalAlign=middle;whiteSpace=wrap;rounded=0;strokeWidth=1;" vertex="1" parent="1">
          <mxGeometry x="388" y="200" width="26" height="20" as="geometry" />
        </mxCell>
        <mxCell id="Na_bWZpocqXKviQB2uQU-11" value="&lt;b&gt;&lt;font style=&quot;font-size: 14px&quot;&gt;π&lt;/font&gt;&lt;/b&gt;" style="text;html=1;align=center;verticalAlign=middle;whiteSpace=wrap;rounded=0;strokeWidth=1;" vertex="1" parent="1">
          <mxGeometry x="510" y="280" width="26" height="20" as="geometry" />
        </mxCell>
        <mxCell id="Na_bWZpocqXKviQB2uQU-12" value="&lt;font style=&quot;font-size: 14px&quot;&gt;&lt;b&gt;Z(t)&lt;/b&gt;&lt;/font&gt;" style="text;html=1;align=center;verticalAlign=middle;whiteSpace=wrap;rounded=0;strokeWidth=1;" vertex="1" parent="1">
          <mxGeometry x="362" y="340" width="26" height="20" as="geometry" />
        </mxCell>
        <mxCell id="Na_bWZpocqXKviQB2uQU-13" value="&lt;font style=&quot;font-size: 14px&quot;&gt;&lt;b&gt;α(t)&lt;/b&gt;&lt;/font&gt;" style="text;html=1;align=center;verticalAlign=middle;whiteSpace=wrap;rounded=0;strokeWidth=1;" vertex="1" parent="1">
          <mxGeometry x="430" y="430" width="26" height="20" as="geometry" />
        </mxCell>
        <mxCell id="Na_bWZpocqXKviQB2uQU-16" value="" style="rounded=0;whiteSpace=wrap;html=1;strokeColor=#000000;strokeWidth=1;fillColor=none;dashed=1;" vertex="1" parent="1">
          <mxGeometry x="210" y="300" width="380" height="170" as="geometry" />
        </mxCell>
        <mxCell id="Na_bWZpocqXKviQB2uQU-17" value="" style="rounded=0;whiteSpace=wrap;html=1;strokeColor=#000000;strokeWidth=1;fillColor=none;dashed=1;" vertex="1" parent="1">
          <mxGeometry x="210" y="140" width="380" height="130" as="geometry" />
        </mxCell>
        <mxCell id="Na_bWZpocqXKviQB2uQU-18" value="&lt;font style=&quot;font-size: 14px&quot;&gt;策略推导&lt;/font&gt;" style="rounded=1;whiteSpace=wrap;html=1;fillColor=#dae8fc;strokeColor=#6c8ebf;" vertex="1" parent="1">
          <mxGeometry x="210" y="140" width="90" height="30" as="geometry" />
        </mxCell>
        <mxCell id="Na_bWZpocqXKviQB2uQU-19" value="&lt;font style=&quot;font-size: 14px&quot;&gt;策略执行&lt;/font&gt;" style="rounded=1;whiteSpace=wrap;html=1;fillColor=#dae8fc;strokeColor=#6c8ebf;" vertex="1" parent="1">
          <mxGeometry x="210" y="300" width="90" height="30" as="geometry" />
        </mxCell>
      </root>
    </mxGraphModel>
  </diagram>
</mxfile>
